<svg width="384" height="482" viewBox="0 0 384 482" fill="none" xmlns="http://www.w3.org/2000/svg">
<path d="M218.18 115.451L196.579 124.048C192.867 126.21 195.36 129.648 197.071 131.097L213.903 145.351C219.159 149.801 220.975 144.408 221.227 141.156L224.339 120.666C226.008 112.579 220.864 113.959 218.18 115.451Z" stroke="white" stroke-width="20"/>
<path d="M285.33 347.922L287.918 326.841C287.761 322.912 283.578 323.366 281.505 324.084L261.113 331.149C254.747 333.354 258.625 337.214 261.359 338.868L277.869 350.506C284.178 355.453 285.38 350.73 285.33 347.922Z" stroke="white" stroke-width="20"/>
<path d="M63.749 296.322L78.2331 311.629C81.3128 313.96 83.4586 310.253 84.1466 308.108L90.9162 287.003C93.0297 280.415 87.7872 281.172 84.9018 282.375L66.2257 288.601C58.71 290.668 61.5842 294.606 63.749 296.322Z" stroke="white" stroke-width="20"/>
<path d="M316.688 278.861C315.685 282.447 312.879 285.681 308.95 285.241C306.911 285.013 305.252 283.763 304.261 282.023C303.308 280.347 302.995 278.303 303.153 276.15L303.18 275.783L303.281 275.433C308.556 257.106 308.952 227.306 297.77 199.54C286.661 171.956 264.15 146.398 223.423 136.011L220.126 135.17L220.83 131.826L222.136 125.635L222.821 122.387L226.075 122.939C278.148 131.766 338.042 192.066 316.78 278.513L316.688 278.861Z" fill="white" stroke="white" stroke-width="7"/>
<path d="M95.3656 353.096C92.6696 350.683 91.0679 346.935 93.3688 343.909C94.5686 342.331 96.514 341.55 98.5579 341.541C100.522 341.533 102.495 342.214 104.327 343.311L104.646 343.502L104.917 343.747C118.568 356.14 144.597 369.793 174.247 373.33C203.693 376.842 236.67 370.391 264.834 342.69L267.24 340.324L269.967 342.472L274.807 346.283L277.44 348.357L275.337 350.808C243.1 388.382 161.838 409.009 95.6303 353.325L95.3656 353.096Z" fill="white" stroke="white" stroke-width="7"/>
<path d="M150.978 121.017C154.432 119.715 158.364 120.244 159.837 123.701C161.473 127.542 158.763 131.524 155.282 133.709L154.945 133.92L154.582 134.053C137.886 140.208 114.428 156.902 97.8912 181.914C81.4659 206.757 71.8539 239.816 82.596 279.106L83.4693 282.303L80.3514 283.722L74.8994 286.202L71.7724 287.625L70.6537 284.529C53.5054 237.067 72.8238 153.427 150.645 121.149L150.978 121.017Z" fill="white" stroke="white" stroke-width="7"/>
<path d="M7 101.251C7 -34.65 374 -19.2873 374 101.251M7 101.251C31.9365 169.792 296.48 209.38 374 101.251M7 101.251V183.382M374 101.251V187.518M7 183.382C44.9468 242.469 263.954 282.648 374 187.518M7 183.382V259.604M374 187.518V259.604M7 259.604C54.1625 335.827 312.743 345.281 374 259.604M7 259.604V334.94M374 259.604V334.94M7 334.94V410.277C51.9941 477.045 289.433 518.997 374 410.277V334.94M7 334.94C43.8626 410.277 308.948 428.594 374 334.94" stroke="white" stroke-width="10"/>
<path d="M5.52226 406.5L4 101" stroke="white" stroke-width="7" stroke-linecap="round" stroke-linejoin="bevel"/>
<path d="M379.522 406.5L378 101" stroke="white" stroke-width="7" stroke-linecap="round" stroke-linejoin="bevel"/>
</svg>
