<svg width="384" height="482" viewBox="0 0 384 482" fill="none" xmlns="http://www.w3.org/2000/svg">
<path d="M218.18 115.451L196.579 124.048C192.867 126.21 195.36 129.648 197.071 131.097L213.903 145.351C219.159 149.801 220.975 144.408 221.227 141.156L224.339 120.666C226.008 112.579 220.864 113.959 218.18 115.451Z" stroke="white" stroke-width="30"/>
<path d="M285.33 347.922L287.918 326.841C287.761 322.912 283.578 323.366 281.505 324.084L261.113 331.149C254.747 333.354 258.625 337.214 261.359 338.868L277.869 350.506C284.178 355.453 285.38 350.73 285.33 347.922Z" stroke="white" stroke-width="30"/>
<path d="M63.749 296.322L78.2331 311.629C81.3128 313.96 83.4586 310.253 84.1466 308.108L90.9162 287.003C93.0297 280.415 87.7872 281.172 84.9018 282.375L66.2257 288.601C58.71 290.668 61.5842 294.606 63.749 296.322Z" stroke="white" stroke-width="30"/>
<path d="M319.086 279.553C317.906 283.757 314.351 288.371 308.706 287.74C305.773 287.411 303.449 285.611 302.109 283.256C300.832 281.011 300.49 278.419 300.673 275.932L300.719 275.305L300.893 274.703C306.016 256.905 306.433 227.688 295.469 200.463C284.63 173.551 262.713 148.617 222.843 138.448L217.19 137.006L218.399 131.273L219.704 125.082L220.878 119.514L226.458 120.46C279.82 129.505 340.843 191.124 319.193 279.147L319.086 279.553Z" fill="white" stroke="white" stroke-width="12"/>
<path d="M93.5444 354.772C90.3808 351.937 87.8649 346.927 91.1903 342.552C92.9278 340.267 95.7177 339.189 98.5015 339.177C101.148 339.166 103.635 340.078 105.758 341.349L106.305 341.677L106.768 342.097C120.013 354.123 145.503 367.52 174.549 370.986C203.246 374.409 235.348 368.158 262.881 341.078L267.005 337.023L271.68 340.704L276.519 344.516L281.033 348.07L277.428 352.273C244.337 390.842 161.298 411.765 93.852 355.039L93.5444 354.772Z" fill="white" stroke="white" stroke-width="12"/>
<path d="M150.381 118.62C154.529 117.06 159.964 117.474 162.079 122.44C164.46 128.03 160.347 133.361 156.345 135.872L155.769 136.234L155.146 136.464C139.003 142.415 116.034 158.714 99.8383 183.21C83.8334 207.418 74.4154 239.645 84.9416 278.146L86.4397 283.625L81.0951 286.058L75.644 288.538L70.2821 290.979L68.364 285.67C50.8298 237.14 70.5444 151.726 149.983 118.776L150.381 118.62Z" fill="white" stroke="white" stroke-width="12"/>
<path d="M7 101.251C7 -34.65 374 -19.2873 374 101.251M7 101.251C31.9365 169.792 296.48 209.38 374 101.251M7 101.251V183.382M374 101.251V187.518M7 183.382C44.9468 242.469 263.954 282.648 374 187.518M7 183.382V259.604M374 187.518V259.604M7 259.604C54.1625 335.827 312.743 345.281 374 259.604M7 259.604V334.94M374 259.604V334.94M7 334.94V410.277C51.9941 477.045 289.433 518.997 374 410.277V334.94M7 334.94C43.8626 410.277 308.948 428.594 374 334.94" stroke="white" stroke-width="10"/>
<path d="M5.52226 406.5L4 101" stroke="white" stroke-width="7" stroke-linecap="round" stroke-linejoin="bevel"/>
<path d="M379.522 406.5L378 101" stroke="white" stroke-width="7" stroke-linecap="round" stroke-linejoin="bevel"/>
</svg>
