<svg xmlns="http://www.w3.org/2000/svg" fill="none" viewBox="6.267713086172345 0 1009.5531062124248 976.64" style="max-height: 500px" width="1009.5531062124248" height="976.64">
<path stroke-width="20" stroke="white" d="M612.391 15.2915L530.939 47.7072C516.942 55.8623 526.343 68.8255 532.794 74.2877L596.265 128.036C616.08 144.816 622.931 124.481 623.879 112.216L635.612 34.9555C641.909 4.46285 622.509 9.66519 612.391 15.2915Z"/>
<path stroke-width="20" stroke="white" d="M865.59 816.447L875.348 736.959C874.758 722.145 858.982 723.856 851.168 726.563L774.276 753.201C750.271 761.517 764.893 776.07 775.204 782.307L837.459 826.193C861.248 844.842 865.78 827.036 865.59 816.447Z"/>
<path stroke-width="20" stroke="white" d="M21.197 662.918L80.4974 715.813C92.8113 723.586 99.6915 708.974 101.592 700.697L120.297 619.245C126.136 593.816 106.681 598.335 96.2239 603.772L28.0402 633.119C0.461701 643.282 12.5163 657.162 21.197 662.918Z"/>
<path stroke-width="10" stroke="white" fill="white" d="M976.119 628.628C973.021 640.435 964.793 648.366 955.451 647.321C950.69 646.788 946.613 643.877 944.026 639.331C941.492 634.878 940.406 628.964 940.924 621.944L940.962 621.421L941.107 620.919C961.497 550.084 962.921 435.806 920.043 329.337C877.269 223.127 790.442 124.714 634.062 84.8283L629.353 83.6277L630.36 78.8496L635.281 55.5063L636.259 50.8656L640.909 51.6538C833.029 84.2204 1055.16 307.267 976.263 628.063L976.119 628.628Z"/>
<path stroke-width="10" stroke="white" fill="white" d="M155.696 830.831C146.741 823.068 143.508 812.871 148.91 805.766C151.671 802.134 156.24 800.164 161.522 800.142C166.69 800.12 172.444 801.927 178.399 805.492L178.854 805.765L179.24 806.115C232.042 854.053 331.965 906.363 445.742 919.937C559.228 933.476 686.443 908.493 794.713 802.004L798.15 798.624L802.045 801.692L820.294 816.066L824.056 819.028L821.052 822.529C702.3 960.944 401.714 1037.75 156.128 831.199L155.696 830.831Z"/>
<path stroke-width="10" stroke="white" fill="white" d="M381.493 40.5653C392.738 37.0741 402.705 40.154 405.572 48.6233C408.619 57.625 402.206 67.7554 390.272 74.0309L389.77 74.2944L389.238 74.4461C322.837 93.3126 228.144 150.493 157.535 241.374C87.1034 332.028 40.6118 456.224 70.2073 609.668L71.1042 614.316L66.5081 615.997L45.2972 623.756L40.6879 625.443L39.4314 620.91C-10.3964 441.125 84.5481 137.924 380.957 40.7358L381.493 40.5653Z"/>
<path stroke-width="15" stroke="white" d="M318 345.251C318 209.35 685 224.713 685 345.251M318 345.251C342.936 413.792 607.48 453.38 685 345.251M318 345.251V427.382M685 345.251V431.518M318 427.382C355.947 486.469 574.954 526.648 685 431.518M318 427.382V503.604M685 431.518V503.604M318 503.604C365.162 579.827 623.743 589.281 685 503.604M318 503.604V578.94M685 503.604V578.94M318 578.94V654.277C362.994 721.045 600.433 762.997 685 654.277V578.94M318 578.94C354.863 654.277 619.948 672.594 685 578.94"/>
</svg>