<svg width="527" height="478" viewBox="0 0 527 478" fill="none" xmlns="http://www.w3.org/2000/svg">
<path d="M429.775 20.0137C455.559 16.2393 478.341 17.3161 494.647 19.3408C500.147 20.0237 504.884 20.8138 508.721 21.5498C514.647 96.2715 485.544 150.123 453.911 186.145C437.164 205.214 419.728 219.229 406.489 228.458C399.886 233.061 394.372 236.442 390.576 238.639C388.68 239.736 387.216 240.536 386.265 241.042C385.79 241.295 385.443 241.475 385.235 241.581C385.131 241.634 385.062 241.669 385.028 241.686L385.005 241.697L371.23 248.476L376.201 263.038C390.576 305.145 388.531 332.307 380.781 349.855C373.09 367.27 358.3 378.559 339.893 385.81C321.34 393.118 300.509 395.712 283.753 396.344C279.339 396.51 275.279 396.535 271.704 396.487V308.634C273.35 307.975 275.233 307.223 277.382 306.358C291.871 300.531 318.602 289.707 367.613 269.702L354.387 237.298C305.398 257.293 278.731 268.091 264.322 273.886C261.969 274.832 259.944 275.642 258.205 276.338L222.314 241.933C225.36 236.47 229.365 229.307 234.105 220.889C245.336 200.945 260.672 173.972 277.111 145.826L262.652 137.381L265.778 132.415C315.108 54.0148 378.71 27.4888 429.775 20.0137ZM256.16 395.699C256.155 395.699 256.152 395.698 256.15 395.698H256.152C256.154 395.698 256.159 395.699 256.16 395.699ZM159.29 124.575C179.729 122.362 200.803 125.829 217.279 130.161C225.411 132.299 232.177 134.583 236.868 136.313C238.614 136.958 240.065 137.523 241.182 137.972C226.808 162.722 213.588 185.992 203.608 203.715C197.963 213.74 193.35 221.998 190.147 227.752C190.119 227.802 190.091 227.852 190.063 227.901L81.8611 229.735C84.2045 190.664 94.2908 166.346 106.627 151.272C120.522 134.294 139.155 126.755 159.29 124.575ZM519.817 24.0898C519.833 24.0945 519.84 24.0964 519.838 24.0957C519.836 24.0952 519.831 24.0947 519.825 24.0928C519.822 24.0918 519.815 24.0895 519.813 24.0889V24.0879C519.815 24.0883 519.816 24.0895 519.817 24.0898Z" stroke="black" stroke-width="35"/>
<path d="M67.9989 421.549C67.4393 416.821 67.4411 410.887 68.1878 403.83C69.392 392.45 72.3845 379.432 76.6696 366.302C85.4319 339.453 98.6514 314.946 110.154 303.628C132.352 281.783 169.178 279.988 192.372 298.825C215.566 317.662 217.091 350.605 194.893 372.45C183.286 383.871 157.509 398.286 128.783 408.754C114.701 413.885 100.609 417.805 88.0755 419.898C80.1915 421.214 73.4634 421.713 67.9989 421.549Z" stroke="black" stroke-width="30"/>
</svg>
