<?xml version="1.0" standalone="no"?>
<!DOCTYPE svg PUBLIC "-//W3C//DTD SVG 20010904//EN"
 "http://www.w3.org/TR/2001/REC-SVG-20010904/DTD/svg10.dtd">
<svg version="1.0" xmlns="http://www.w3.org/2000/svg"
 width="500.000000pt" height="500.000000pt" viewBox="0 0 500.000000 500.000000"
 preserveAspectRatio="xMidYMid meet">

<g transform="translate(0.000000,500.000000) scale(0.100000,-0.100000)"
fill="#000000" stroke="none">
<path d="M2796 4036 c-144 -40 -175 -54 -176 -80 0 -5 57 -67 127 -138 157
-158 168 -161 196 -53 11 39 20 71 22 73 5 5 152 -51 220 -85 116 -58 185
-102 283 -181 442 -355 638 -948 491 -1485 -17 -62 -32 -128 -33 -147 -1 -32
1 -35 28 -35 27 0 31 5 49 55 10 30 31 105 45 165 23 98 26 132 26 310 1 209
-6 270 -49 420 -94 331 -287 615 -550 808 -137 102 -237 156 -389 213 -48 18
-90 35 -93 38 -3 3 2 35 11 72 18 72 12 95 -28 93 -11 0 -92 -20 -180 -43z
m124 -57 c0 -22 -43 -169 -49 -169 -4 0 -35 29 -70 64 l-64 64 74 22 c41 12
79 23 84 25 19 7 25 5 25 -6z"/>
<path d="M2174 3925 c-117 -31 -225 -74 -343 -136 -414 -217 -710 -632 -786
-1104 -25 -155 -17 -421 18 -587 1 -6 -29 -21 -68 -33 -106 -32 -104 -41 46
-191 122 -122 153 -142 176 -111 10 12 93 322 93 344 0 26 -35 32 -91 18 -30
-8 -59 -15 -66 -15 -13 0 -28 61 -43 173 -29 223 7 490 97 707 77 188 171 328
323 481 203 204 413 320 710 393 83 21 85 22 85 51 0 26 -4 30 -30 32 -16 1
-71 -8 -121 -22z m-980 -1971 c-13 -48 -25 -88 -27 -90 -2 -2 -32 26 -67 61
-35 35 -61 67 -58 71 8 7 136 43 160 43 14 1 14 -8 -8 -85z"/>
<path d="M2290 3405 c-279 -43 -483 -129 -556 -237 l-29 -43 -3 -670 c-2 -582
-1 -675 13 -710 48 -125 234 -221 530 -271 129 -22 388 -29 537 -15 331 31
623 155 658 279 6 24 10 279 10 705 0 541 -3 674 -14 700 -43 105 -253 207
-521 253 -128 23 -499 28 -625 9z m595 -80 c333 -54 552 -192 480 -302 -100
-152 -461 -247 -878 -229 -248 10 -393 40 -543 111 -115 55 -164 105 -164 167
0 36 6 47 44 83 96 93 334 167 601 189 93 7 369 -4 460 -19z m-993 -480 c334
-174 1071 -168 1395 11 34 19 65 39 68 44 3 6 11 10 17 10 6 0 9 -35 6 -100
l-3 -99 -40 -41 c-74 -76 -257 -146 -465 -177 -130 -19 -429 -21 -560 -4 -200
26 -398 96 -483 171 -42 38 -42 38 -47 121 -3 46 -4 94 -2 107 l4 23 31 -21
c18 -11 53 -32 79 -45z m-46 -290 c341 -206 1120 -208 1457 -5 36 22 68 40 71
40 13 0 5 -172 -9 -199 -68 -132 -405 -231 -785 -231 -350 0 -647 75 -760 192
-38 38 -39 41 -42 122 -3 78 -1 116 7 116 1 0 29 -16 61 -35z m94 -365 c178
-73 362 -103 630 -104 324 0 568 49 734 149 32 19 63 35 68 35 6 0 9 -37 6
-93 -3 -83 -6 -97 -30 -129 -54 -71 -247 -149 -453 -184 -125 -22 -469 -25
-598 -6 -220 32 -411 104 -480 182 l-37 40 0 101 0 100 47 -32 c26 -18 77 -45
113 -59z m-21 -307 c86 -41 225 -78 366 -98 131 -19 449 -19 580 0 193 27 383
89 474 154 16 12 32 21 36 21 4 0 5 -47 3 -104 -3 -103 -4 -105 -36 -139 -42
-43 -183 -110 -287 -136 -275 -69 -684 -70 -950 -1 -110 28 -235 90 -284 139
l-41 41 0 101 0 101 33 -22 c17 -12 65 -37 106 -57z"/>
<path d="M3634 1586 c-143 -39 -184 -56 -184 -78 0 -5 23 -34 52 -64 l52 -55
-39 -34 c-196 -168 -428 -281 -689 -337 -146 -31 -399 -30 -546 1 -305 65
-537 190 -759 409 -65 64 -110 101 -119 97 -7 -3 -16 -5 -18 -5 -2 0 -4 -14
-4 -31 0 -25 16 -46 99 -128 203 -199 447 -336 714 -400 236 -58 552 -52 777
14 224 66 443 186 597 328 l44 40 47 -51 c46 -50 82 -65 97 -42 3 5 12 33 20
62 7 29 28 106 45 172 33 126 31 147 -14 145 -11 -1 -89 -20 -172 -43z m111
-83 c-10 -59 -36 -143 -43 -143 -11 0 -122 114 -122 125 0 6 33 20 73 32 102
29 100 30 92 -14z"/>
</g>
</svg>
